<?xml version="1.0" standalone="no"?>
<svg version="1.0" xmlns="http://www.w3.org/2000/svg"
 width="1280.000000pt" height="726.000000pt" viewBox="0 0 1280.000000 726.000000"
 preserveAspectRatio="xMidYMid meet">
<g transform="translate(0.000000,726.000000) scale(0.100000,-0.100000)"
fill="#000000" stroke="none">
<path d="M6319 7158 c-115 -179 -212 -405 -255 -598 -11 -49 -17 -124 -17
-215 -1 -173 10 -225 90 -412 2 -6 -45 22 -106 62 -355 234 -610 295 -810 193
-78 -40 -124 -100 -141 -184 -40 -190 102 -461 262 -505 50 -13 94 1 133 41
29 30 29 30 12 65 -41 85 -9 161 85 208 147 74 352 28 436 -98 29 -43 33 -55
27 -90 -8 -54 -49 -125 -160 -275 -98 -133 -113 -157 -125 -200 -11 -38 4 -50
60 -50 143 0 289 81 343 191 l25 49 52 -126 52 -126 -12 -67 c-19 -114 -79
-380 -120 -532 -239 -886 -597 -1404 -1049 -1520 -366 -94 -816 176 -1260 756
-48 62 -60 86 -57 105 3 14 8 76 12 138 3 61 8 112 11 112 2 0 15 -13 29 -29
39 -47 125 -82 213 -88 86 -6 180 10 211 35 19 16 20 21 9 45 -13 29 -93 93
-234 187 -94 63 -171 133 -192 174 -10 19 -13 42 -9 68 22 138 169 255 331
266 86 5 131 -7 171 -49 24 -26 30 -41 34 -97 5 -62 7 -68 35 -81 133 -65 260
85 273 320 8 170 -47 294 -157 351 -45 24 -65 28 -132 28 -223 0 -427 -146
-684 -490 -26 -36 -51 -68 -54 -72 -3 -4 -6 59 -7 140 0 181 -18 254 -104 427
-68 137 -149 250 -271 379 -112 119 -270 251 -280 234 -11 -20 -46 -161 -66
-268 -13 -73 -17 -145 -17 -310 0 -201 2 -222 27 -315 36 -132 100 -262 176
-357 35 -43 67 -78 72 -78 5 0 9 -4 9 -10 0 -6 -10 -6 -27 1 -117 44 -418 99
-544 99 -196 -1 -383 -92 -445 -218 -14 -27 -19 -59 -19 -118 0 -72 4 -87 37
-156 48 -95 142 -194 229 -237 84 -42 163 -44 209 -5 17 15 37 39 45 55 15 27
14 30 -20 75 -44 58 -48 116 -11 179 67 113 265 176 399 125 72 -27 122 -70
131 -111 9 -49 -9 -139 -65 -314 -59 -188 -69 -244 -45 -264 24 -20 82 1 165
60 97 68 151 147 167 246 l6 42 84 -97 84 -97 0 -85 c0 -110 -26 -435 -46
-570 -60 -414 -175 -706 -339 -858 -79 -74 -137 -103 -290 -142 -97 -25 -147
-32 -260 -37 -128 -4 -149 -2 -239 21 -183 47 -450 198 -693 390 -74 59 -83
70 -97 120 -9 30 -19 62 -22 71 -5 13 -2 13 36 0 112 -39 269 9 380 116 78 76
40 99 -210 129 -290 34 -350 62 -365 169 -8 59 14 156 50 216 31 54 115 131
168 155 55 25 121 25 161 0 32 -19 46 -40 66 -92 12 -35 48 -37 110 -5 80 40
108 144 76 281 -51 217 -203 368 -357 354 -115 -11 -255 -120 -332 -259 -65
-117 -142 -386 -163 -571 -4 -32 -11 -58 -15 -58 -5 0 -9 6 -9 14 0 32 -93
196 -149 263 -158 187 -466 345 -801 412 -115 23 -220 37 -220 29 0 -8 247
-234 379 -347 418 -356 511 -438 653 -572 86 -82 228 -227 316 -322 131 -141
187 -212 307 -387 408 -596 524 -851 570 -1245 9 -77 17 -140 19 -142 1 -1
1863 -6 4138 -9 l4135 -7 7 63 c35 304 264 799 612 1316 169 252 281 401 386
514 152 162 388 381 668 618 256 218 523 455 570 507 l25 27 -55 -7 c-420 -52
-797 -226 -979 -450 -57 -70 -141 -223 -141 -256 0 -42 -17 -7 -24 48 -21 180
-84 410 -149 543 -52 105 -152 211 -241 255 -121 59 -246 31 -342 -79 -85 -98
-140 -254 -131 -373 8 -102 56 -161 140 -170 l45 -5 20 43 c32 71 63 94 130
93 194 -2 369 -275 290 -450 -19 -40 -101 -73 -228 -90 -63 -8 -162 -22 -219
-30 -107 -14 -151 -32 -151 -61 0 -27 88 -101 168 -141 90 -44 191 -55 256
-28 28 11 37 12 33 3 -2 -7 -15 -50 -28 -96 l-24 -83 -90 -78 c-289 -248 -502
-375 -720 -430 -78 -19 -107 -22 -225 -18 -144 6 -244 30 -355 86 -319 160
-497 543 -555 1197 -5 61 -14 197 -20 303 l-11 193 88 101 88 101 6 -49 c9
-70 48 -141 111 -201 60 -56 168 -116 201 -111 38 5 29 97 -25 268 -64 199
-68 217 -68 284 0 54 3 61 35 92 43 40 130 74 193 74 113 0 238 -57 293 -133
52 -71 48 -146 -11 -202 l-29 -28 20 -39 c30 -58 71 -80 144 -76 179 11 375
230 376 423 1 157 -122 277 -331 321 -137 29 -384 2 -627 -70 l-83 -24 50 55
c67 73 104 128 145 216 80 168 117 416 95 639 -16 175 -72 439 -93 440 -20 0
-224 -181 -300 -267 -253 -283 -373 -568 -353 -838 l6 -90 -81 109 c-45 60
-134 161 -198 225 -167 166 -278 227 -434 237 -109 7 -159 -10 -223 -72 -72
-71 -96 -139 -97 -271 -2 -155 48 -284 134 -347 32 -24 103 -27 144 -6 28 15
30 20 30 76 0 69 19 103 75 134 54 30 185 21 265 -17 110 -53 194 -161 195
-251 0 -68 -51 -120 -245 -254 -66 -45 -137 -99 -157 -118 -82 -78 -33 -116
147 -117 127 0 181 18 247 83 21 20 38 32 38 27 0 -6 5 -61 10 -124 l9 -115
-63 -86 c-177 -242 -418 -502 -576 -622 -232 -176 -439 -236 -612 -177 -500
168 -886 762 -1132 1744 -29 116 -61 254 -71 307 l-19 97 29 73 c16 40 37 93
48 116 l19 44 20 -41 c28 -57 117 -136 181 -159 72 -27 171 -46 202 -38 21 5
25 12 25 41 0 36 -27 81 -153 250 -76 102 -137 215 -137 254 0 48 69 130 140
166 221 113 504 -22 414 -197 -12 -23 -13 -36 -5 -54 12 -28 79 -64 117 -64
77 0 184 95 242 215 114 234 54 444 -146 505 -86 27 -213 27 -312 0 -102 -28
-310 -132 -450 -224 -63 -42 -116 -76 -117 -76 -2 0 3 10 11 23 29 44 76 205
86 297 24 214 -32 472 -159 736 -62 128 -156 284 -172 284 -6 0 -37 -42 -70
-92z"/>
<path d="M2248 528 l-3 -52 -30 45 -29 44 -14 -78 -14 -78 -47 6 c-25 3 -61 8
-80 11 -32 5 -34 4 -21 -13 8 -10 32 -37 54 -61 l41 -43 -57 -55 -56 -54 78 0
79 0 6 -35 c3 -19 8 -52 11 -72 l6 -38 19 23 c10 13 27 36 38 50 l20 27 1 -77
0 -78 4140 0 4139 0 3 78 3 77 36 -75 36 -75 23 70 c12 39 24 73 26 76 2 4 32
1 66 -7 35 -7 69 -13 76 -14 7 0 -6 27 -29 62 l-42 61 34 29 c19 15 46 36 62
45 15 10 27 21 27 25 0 4 -35 8 -77 10 l-78 3 1 78 2 79 -58 -57 -58 -57 -26
17 c-24 16 -26 23 -26 86 l0 69 -4139 0 -4140 0 -3 -52z"/>
</g>
</svg>
