<?xml version="1.0" encoding="UTF-8"?>
<svg fill="#cccccc" xmlns="http://www.w3.org/2000/svg" xmlns:xlink="http://www.w3.org/1999/xlink" viewBox="0 0 32 32">
<g id="surface22314911">
<path style=" stroke:none;fill-rule:nonzero;fillOpacity:1;" d="M 12.5 18.5 C 11.394531 18.5 10.5 19.394531 10.5 20.5 C 10.5 21.605469 11.394531 22.5 12.5 22.5 C 13.605469 22.5 14.5 21.605469 14.5 20.5 C 14.5 19.394531 13.605469 18.5 12.5 18.5 Z M 12.5 18.5 "/>
<path style=" stroke:none;fill-rule:nonzero;fillOpacity:1;" d="M 20 9.5 C 18.34375 9.5 17 10.84375 17 12.5 C 17 14.152344 18.34375 15.5 20 15.5 C 21.65625 15.5 23 14.152344 23 12.5 C 23 10.84375 21.65625 9.5 20 9.5 Z M 20 14.5 C 18.898438 14.5 18 13.601562 18 12.5 C 18 11.398438 18.898438 10.5 20 10.5 C 21.101562 10.5 22 11.398438 22 12.5 C 22 13.601562 21.101562 14.5 20 14.5 Z M 20 14.5 "/>
<path style=" stroke:none;fill-rule:nonzero;fillOpacity:1;" d="M 16 3 C 8.832031 3 3 8.832031 3 16 C 3 23.167969 8.832031 29 16 29 C 23.167969 29 29 23.167969 29 16 C 29 8.832031 23.167969 3 16 3 Z M 18.726562 17.328125 L 16.269531 19.171875 C 15.8125 17.886719 14.722656 16.898438 13.367188 16.597656 L 15.195312 13.859375 C 15.671875 15.554688 17.023438 16.878906 18.726562 17.328125 Z M 16 12.5 C 16 10.292969 17.792969 8.5 20 8.5 C 22.207031 8.5 24 10.292969 24 12.5 C 24 14.703125 22.207031 16.5 20 16.5 C 17.792969 16.5 16 14.703125 16 12.5 Z M 15.5 20.5 C 15.5 22.152344 14.15625 23.5 12.5 23.5 C 10.84375 23.5 9.5 22.152344 9.5 20.5 C 9.5 18.84375 10.84375 17.5 12.5 17.5 C 14.15625 17.5 15.5 18.84375 15.5 20.5 Z M 8.503906 20.417969 L 4.359375 18.917969 C 4.125 17.980469 4 17.003906 4 16 C 4 15.863281 4.007812 15.730469 4.011719 15.597656 L 9.691406 17.65625 C 8.972656 18.363281 8.527344 19.339844 8.503906 20.417969 Z M 16 28 C 10.828125 28 6.410156 24.710938 4.726562 20.113281 L 8.640625 21.53125 C 9.097656 23.238281 10.652344 24.5 12.5 24.5 C 14.707031 24.5 16.5 22.703125 16.5 20.5 C 16.5 20.417969 16.492188 20.339844 16.488281 20.257812 L 20.179688 17.492188 C 22.851562 17.394531 25 15.195312 25 12.5 C 25 9.742188 22.757812 7.5 20 7.5 C 17.296875 7.5 15.097656 9.65625 15.007812 12.335938 L 12.222656 16.511719 C 11.664062 16.550781 11.140625 16.703125 10.667969 16.949219 L 4.089844 14.5625 C 4.800781 8.621094 9.871094 4 16 4 C 22.617188 4 28 9.382812 28 16 C 28 22.617188 22.617188 28 16 28 Z M 16 28 "/>
</g>
</svg>
