<?xml version="1.0" encoding="UTF-8"?>
<svg xmlns="http://www.w3.org/2000/svg" xmlns:xlink="http://www.w3.org/1999/xlink" viewBox="0 0 32 32" >
<g id="surface20139706">
<path  style=" stroke:none;fill-rule:nonzero;fillOpacity:1;" d="M 3.625 7.304688 C 2.128906 7.304688 0.992188 8.773438 1.402344 10.21875 C 2.476562 13.984375 4.066406 17.671875 6.441406 20.570312 C 8.816406 23.472656 12.027344 25.574219 16.132812 25.988281 C 17.5 26.128906 18.679688 25.015625 18.679688 23.664062 L 18.679688 20.964844 C 18.679688 20.796875 18.792969 20.675781 18.925781 20.671875 C 18.949219 20.671875 18.96875 20.671875 18.980469 20.671875 C 19.453125 20.671875 20.421875 21.261719 21.273438 22.179688 C 22.125 23.097656 22.875 24.234375 23.238281 24.867188 C 23.648438 25.578125 24.410156 26.007812 25.222656 26.007812 L 28.472656 26.007812 C 30.089844 26.007812 31.171875 24.179688 30.382812 22.765625 C 29.136719 20.542969 26.660156 18.34375 25.417969 17.246094 C 27.691406 14.75 29.195312 12.03125 29.863281 10.226562 C 30.367188 8.867188 29.328125 7.332031 27.863281 7.332031 L 25.546875 7.332031 C 24.539062 7.332031 23.597656 7.824219 23.214844 8.609375 C 21.410156 12.308594 19.800781 13.667969 18.667969 14.644531 L 18.667969 9.625 C 18.667969 8.375 17.628906 7.34375 16.378906 7.339844 L 12.320312 7.332031 C 11.027344 7.332031 10.222656 8.929688 11 9.964844 L 11.78125 11.015625 L 11.785156 11.015625 C 11.917969 11.195312 11.988281 11.40625 11.988281 11.625 L 11.988281 11.628906 L 12.003906 15.8125 C 10.390625 14.109375 8.636719 10.5 8.105469 8.890625 C 7.796875 7.949219 6.90625 7.3125 5.925781 7.3125 L 5.921875 7.3125 Z M 3.625 9.304688 L 5.917969 9.3125 C 6.058594 9.3125 6.164062 9.386719 6.207031 9.515625 C 6.863281 11.515625 8.589844 15.324219 10.78125 17.457031 C 11.351562 18.011719 12.183594 18.125 12.832031 17.859375 C 13.480469 17.597656 14.007812 16.917969 14.007812 16.117188 L 13.988281 11.625 C 13.988281 10.972656 13.777344 10.335938 13.382812 9.816406 L 13.382812 9.8125 L 13.023438 9.335938 L 16.375 9.339844 C 16.550781 9.339844 16.667969 9.453125 16.667969 9.625 L 16.667969 14.695312 C 16.667969 16.320312 18.710938 17.25 19.941406 16.191406 C 21.066406 15.21875 23.0625 13.480469 25.011719 9.488281 C 25.054688 9.394531 25.015625 9.332031 25.546875 9.332031 L 27.863281 9.332031 C 28 9.332031 28.039062 9.394531 27.988281 9.535156 C 27.421875 11.066406 25.972656 13.738281 23.828125 16.050781 C 23.167969 16.761719 23.195312 17.9375 23.941406 18.601562 C 25.113281 19.636719 27.671875 22.015625 28.636719 23.742188 C 28.722656 23.898438 28.65625 24.007812 28.472656 24.007812 L 25.222656 24.007812 C 25.113281 24.007812 25.019531 23.953125 24.972656 23.867188 C 24.539062 23.117188 23.742188 21.90625 22.738281 20.820312 C 21.734375 19.738281 20.539062 18.671875 18.980469 18.671875 C 18.9375 18.671875 18.898438 18.671875 18.871094 18.671875 L 18.867188 18.671875 C 17.628906 18.707031 16.679688 19.761719 16.679688 20.964844 L 16.679688 23.664062 C 16.679688 23.871094 16.519531 24.019531 16.335938 24 C 12.785156 23.640625 10.109375 21.894531 7.988281 19.304688 C 5.867188 16.714844 4.351562 13.261719 3.328125 9.671875 C 3.269531 9.46875 3.394531 9.304688 3.625 9.304688 Z M 3.625 9.304688 "/>
</g>
</svg>
